<svg aria-hidden="true" style="position: absolute; width: 0; height: 0; overflow: hidden;" version="1.1" xmlns="http://www.w3.org/2000/svg" xmlns:xlink="http://www.w3.org/1999/xlink">
<defs>
<symbol id="icon-phone" viewBox="0 0 24 32">
<path d="M6.908 0.029s-6.997 0.092-6.907 6.431 1.363 11.943 3.454 15.067 7.451 11.3 13.54 10.473c0 0 2.999-0.643 5.27-2.114l-7.361-5.788s-2.181 1.378-3.544-0.459-5.634-10.381-5.634-10.381-1.181-2.756 1.454-3.951l-0.273-9.279z"></path>
<path d="M7.726 0.029c0 0 0.545-0.183 1.545 0.368s1 1.010 1 1.010l0.091 6.34c0 0-0.273 0.368-0.636 0.734s-1.545 0.919-1.727 0.551c-0.181-0.367-0.272-9.003-0.272-9.003z"></path>
<path d="M15.517 23.421l2.024-1.068s0.454-0.091 1.181 0.367c0.727 0.46 4.544 3.492 4.544 3.492s0.636 0.551 0.454 1.194-0.636 2.021-0.636 2.021l-7.567-6.007z"></path>
</symbol>
<symbol id="icon-whatsapp" viewBox="0 0 32 32">
<path d="M27.281 4.65c-2.994-3-6.975-4.65-11.219-4.65-8.738 0-15.85 7.112-15.85 15.856 0 2.794 0.731 5.525 2.119 7.925l-2.25 8.219 8.406-2.206c2.319 1.262 4.925 1.931 7.575 1.931h0.006c0 0 0 0 0 0 8.738 0 15.856-7.113 15.856-15.856 0-4.238-1.65-8.219-4.644-11.219zM16.069 29.050v0c-2.369 0-4.688-0.637-6.713-1.837l-0.481-0.288-4.987 1.306 1.331-4.863-0.313-0.5c-1.325-2.094-2.019-4.519-2.019-7.012 0-7.269 5.912-13.181 13.188-13.181 3.519 0 6.831 1.375 9.319 3.862 2.488 2.494 3.856 5.8 3.856 9.325-0.006 7.275-5.919 13.188-13.181 13.188zM23.294 19.175c-0.394-0.2-2.344-1.156-2.706-1.288s-0.625-0.2-0.894 0.2c-0.262 0.394-1.025 1.288-1.256 1.556-0.231 0.262-0.462 0.3-0.856 0.1s-1.675-0.619-3.188-1.969c-1.175-1.050-1.975-2.35-2.206-2.744s-0.025-0.613 0.175-0.806c0.181-0.175 0.394-0.463 0.594-0.694s0.262-0.394 0.394-0.662c0.131-0.262 0.069-0.494-0.031-0.694s-0.894-2.15-1.219-2.944c-0.319-0.775-0.65-0.669-0.894-0.681-0.231-0.012-0.494-0.012-0.756-0.012s-0.694 0.1-1.056 0.494c-0.363 0.394-1.387 1.356-1.387 3.306s1.419 3.831 1.619 4.1c0.2 0.262 2.794 4.269 6.769 5.981 0.944 0.406 1.681 0.65 2.256 0.837 0.95 0.3 1.813 0.256 2.494 0.156 0.762-0.113 2.344-0.956 2.675-1.881s0.331-1.719 0.231-1.881c-0.094-0.175-0.356-0.275-0.756-0.475z"></path>
</symbol>
<symbol id="icon-lotus-3322667" viewBox="0 0 54 32">
<path d="M52.137 25.387c-1.435-1.091-3.041-1.999-4.739-2.694 1.365-1.252 2.565-2.669 3.527-4.165l0.67-1.186-1.275-0.478c-1.722-0.534-3.541-0.838-5.374-0.911 0.854-1.643 1.497-3.385 1.89-5.12l0.224-1.343-1.362-0.013c-1.801 0.087-3.614 0.423-5.362 0.982 0.241-1.836 0.249-3.693 0.025-5.458l-0.249-1.339-1.284 0.454c-1.662 0.698-3.252 1.634-4.702 2.757-0.402-1.808-1.029-3.556-1.843-5.137l-0.692-1.173-1.051 0.865c-1.324 1.224-2.497 2.648-3.476 4.199-0.996-1.561-2.183-2.989-3.489-4.197l-1.051-0.865-0.692 1.173c-0.825 1.603-1.441 3.342-1.83 5.134-1.47-1.126-3.074-2.062-4.714-2.751l-1.284-0.454-0.249 1.339c-0.227 1.788-0.211 3.633 0.036 5.451-1.766-0.556-3.594-0.887-5.371-0.972l-1.362 0.013 0.224 1.343c0.398 1.758 1.045 3.486 1.898 5.11-1.85 0.082-3.68 0.396-5.379 0.923l-1.275 0.478 0.67 1.186c0.976 1.516 2.174 2.918 3.532 4.152-1.71 0.71-3.323 1.631-4.739 2.707l-1.035 0.885 1.035 0.885c3.635 2.763 8.36 4.359 12.916 4.264 4.432-0.286 8.836-2.192 12.157-5.149-3.412 2.543-7.937 4.198-12.206 3.996-3.656-0.173-7.404-1.729-10.333-3.996 1.16-0.897 2.436-1.669 3.782-2.29 1.704 1.277 3.593 2.297 5.571 2.971 4.263 1.247 9.053 0.962 13.185-0.681-4.076 1.223-8.894 1.231-12.837-0.419-1.491-0.624-2.906-1.508-4.193-2.57 1.402-0.491 2.856-0.819 4.316-0.955 0.030 0.024 0.060 0.050 0.090 0.074 3.579 2.63 8.178 4 12.623 3.87-3.844-0.221-7.92-1.586-10.987-3.992 1.757 0.085 3.52 0.427 5.213 0.99 1.759 1.297 3.722 2.322 5.773 3-1.424-0.613-2.82-1.415-4.114-2.368 1.465 0.631 2.855 1.429 4.114 2.368-0 0-0 0-0 0.001s0-0 0-0.001 0 0 0.001 0 0 0.001 0 0.001-0-0.001-0-0.001c0 0 0 0 0 0s0.001 0.001 0.001 0.002c-0-0.001-0.001-0.001-0.001-0.002 0.001 0.001 0.002 0.001 0.003 0.002-0.001-0.001-0.002-0.002-0.003-0.003s-0-0.001-0.001-0.001-0-0.001-0-0.001 0-0.001 0-0.001 0-0.001 0.001-0.001 0.001-0.001 0.001-0.001 0.001-0 0.001-0 0.001 0 0.001 0 0.001 0 0.001 0c3.323 2.959 7.732 4.866 12.167 5.148 4.504 0.188 9.328-1.546 12.904-4.265l1.035-0.885-1.035-0.885zM48.241 18.563c-0.783 1.24-1.718 2.402-2.77 3.446-1.43-0.433-2.902-0.715-4.374-0.83 1.066-1.029 2.019-2.21 2.84-3.483 1.472 0.133 2.929 0.428 4.305 0.868zM27.934 25.541c1.355-1.203 2.56-2.598 3.565-4.123 1.385-1.103 2.91-2.021 4.513-2.665-0.952 1.48-2.13 2.835-3.464 4.020-1.652 0.722-3.213 1.657-4.614 2.768zM31.171 23.893c-1.279 0.953-2.665 1.758-4.108 2.379-0-0-0-0-0-0s0.001-0.001 0.002-0.002c1.243-0.926 2.634-1.734 4.106-2.378zM27.338 19.703c0.352-1.735 0.93-3.418 1.744-4.942 0.222 1.745 0.191 3.541-0.070 5.306-0.802 1.615-1.396 3.334-1.755 5.086 0.265-1.792 0.291-3.636 0.081-5.45zM29.57 20.194c0.925-1.51 2.043-2.894 3.329-4.047-0.388 1.716-1.032 3.393-1.881 4.962-1.306 1.243-2.452 2.655-3.389 4.179 0.862-1.594 1.517-3.317 1.94-5.094zM37.603 18.311c0.024-0.038 0.047-0.077 0.071-0.116 1.395-0.38 2.868-0.567 4.354-0.579-0.758 1.278-1.661 2.463-2.692 3.506-0.039 0.001-0.078 0-0.116 0.001-1.67 0.108-3.336 0.446-4.941 0.983 1.27-1.124 2.396-2.4 3.324-3.795zM39.984 12.442c1.429-0.379 2.898-0.6 4.342-0.657-0.312 1.433-0.793 2.844-1.425 4.185-1.492 0.083-2.971 0.32-4.395 0.716 0.649-1.332 1.142-2.767 1.477-4.245zM38.328 6.755c0.197 1.453 0.228 2.944 0.093 4.42-1.373 0.588-2.683 1.317-3.885 2.176 0.155-1.474 0.126-2.991-0.064-4.494 1.213-0.845 2.518-1.555 3.856-2.102zM34.243 15.186c0.010-0.044 0.018-0.089 0.027-0.133 1.181-0.834 2.501-1.514 3.894-2.033-0.276 1.46-0.719 2.883-1.331 4.215-0.036 0.014-0.073 0.027-0.109 0.041-1.532 0.672-2.982 1.56-4.307 2.614 0.809-1.49 1.431-3.075 1.826-4.703zM33.151 14.439c-0.029 0.025-0.059 0.050-0.088 0.076-1.21 1.156-2.269 2.486-3.153 3.929 0.25-1.677 0.293-3.378 0.107-5.044-0.006-0.045-0.013-0.090-0.020-0.135 0.824-1.188 1.833-2.278 2.963-3.242 0.24 1.466 0.31 2.955 0.191 4.416zM30.972 4.079c0.682 1.298 1.221 2.688 1.599 4.122-1.090 1.022-2.070 2.155-2.906 3.373-0.359-1.438-0.904-2.854-1.597-4.201 0.851-1.209 1.835-2.322 2.904-3.294zM28.735 13.071c-0.019 0.034-0.039 0.067-0.057 0.101-0.742 1.5-1.282 3.112-1.619 4.771-0.338-1.661-0.88-3.275-1.624-4.776-0.021-0.040-0.043-0.080-0.065-0.12 0.368-1.398 0.943-2.767 1.676-4.060 0.727 1.295 1.302 2.67 1.69 4.084zM27.059 26.277c-0-0-0-0-0-0.001s0-0 0-0 0 0.001 0 0.001-0 0-0 0zM27.059 26.277c0 0 0 0 0 0.001s-0 0-0 0-0-0-0-0 0-0 0-0zM27.058 26.276c-0-0.001-0.001-0.001-0.001-0.002-0.696-1.385-1.25-2.895-1.628-4.457 0.717 1.425 1.268 2.93 1.63 4.458-0 0-0 0-0 0zM26.49 25.291c-0.949-1.543-2.114-2.972-3.441-4.227-0.845-1.556-1.485-3.217-1.84-4.907 1.292 1.194 2.422 2.59 3.357 4.11 0.424 1.752 1.073 3.451 1.925 5.024zM25.073 20.005c-0.262-1.751-0.295-3.53-0.051-5.241 0.805 1.564 1.391 3.262 1.749 5.010-0.201 1.792-0.172 3.61 0.090 5.38-0.364-1.775-0.97-3.516-1.788-5.149zM23.144 4.081c1.085 0.986 2.067 2.109 2.912 3.327-0.674 1.333-1.208 2.733-1.577 4.164-0.829-1.228-1.826-2.372-2.938-3.401 0.386-1.427 0.93-2.81 1.603-4.089zM21.132 10.035c1.127 0.969 2.137 2.064 2.985 3.26-0.006 0.038-0.013 0.076-0.019 0.115-0.184 1.663-0.14 3.362 0.11 5.037-0.886-1.445-1.947-2.776-3.16-3.933-0.034-0.031-0.068-0.060-0.102-0.090-0.132-1.44-0.060-2.923 0.186-4.388zM19.876 15.2c0.396 1.626 1.018 3.208 1.826 4.696-1.327-1.055-2.779-1.943-4.314-2.615-0.042-0.017-0.084-0.033-0.127-0.050-0.617-1.308-1.056-2.726-1.326-4.187 1.39 0.525 2.714 1.209 3.92 2.042 0.007 0.038 0.014 0.076 0.021 0.114zM15.789 6.76c1.357 0.556 2.663 1.275 3.875 2.13-0.178 1.483-0.2 2.982-0.058 4.452-1.199-0.871-2.527-1.605-3.924-2.191-0.125-1.473-0.087-2.958 0.107-4.39zM14.163 12.469c0.34 1.455 0.832 2.871 1.468 4.203-1.424-0.408-2.923-0.644-4.437-0.717-0.621-1.341-1.094-2.75-1.401-4.162 1.465 0.058 2.939 0.287 4.369 0.676zM8.621 22.005c-1.042-1.048-1.969-2.21-2.74-3.432 1.397-0.446 2.86-0.736 4.337-0.859 0.817 1.251 1.763 2.413 2.817 3.448-1.478 0.104-2.967 0.395-4.414 0.843zM14.894 21.133c-0.045-0.002-0.091-0.002-0.136-0.004-1.027-1.018-1.925-2.2-2.678-3.481 1.486 0.018 2.964 0.208 4.382 0.579 0.020 0.033 0.039 0.067 0.059 0.1 0.928 1.392 2.054 2.666 3.322 3.788-1.608-0.538-3.276-0.875-4.948-0.981zM21.508 22.752c-1.326-1.173-2.495-2.515-3.408-3.982 1.623 0.681 3.162 1.605 4.56 2.714 0.998 1.502 2.189 2.876 3.527 4.063-1.42-1.126-3.003-2.070-4.68-2.795zM24.002 22.645c1.161 1.094 2.194 2.319 3.057 3.632-0 0-0 0-0 0s-0.001-0.001-0.002-0.002c-1.128-1.063-2.165-2.293-3.055-3.631zM27.059 26.278c-0-0-0-0-0.001-0.001s0-0 0-0 0 0 0 0.001 0 0-0 0zM27.059 26.279c0 0 0 0 0 0s-0-0-0-0 0-0 0-0 0 0 0 0zM27.059 26.275c0-0 0-0 0-0s-0 0-0 0.001-0 0-0 0-0-0-0-0zM27.059 26.275c-0 0-0 0-0 0s-0-0.001-0-0.001 0-0 0-0-0 0.001-0 0.001zM27.059 26.274c-0 0-0 0-0 0s-0-0.002-0-0.003c-0.181-1.54-0.185-3.148-0.006-4.745 0.186 1.585 0.19 3.187 0.007 4.747zM27.060 26.275c0 0-0 0-0 0s0-0 0-0 0-0 0-0-0 0-0 0.001zM27.060 26.274c-0 0-0 0-0 0s0-0.001 0-0.001 0 0 0 0-0 0-0 0.001zM27.060 26.273c0-0.001 0-0.002 0-0.002 0.357-1.509 0.903-3.021 1.617-4.461-0.367 1.553-0.912 3.060-1.617 4.463-0 0-0 0-0 0zM27.061 26.274c-0 0-0 0-0 0s0-0 0-0 0 0 0 0-0 0-0 0zM27.061 26.273c-0 0-0 0-0 0s0-0 0-0.001 0 0 0 0-0 0-0.001 0.001zM27.062 26.272c0-0.001 0.001-0.001 0.001-0.002 0.851-1.296 1.882-2.53 3.045-3.639-0.876 1.333-1.903 2.563-3.046 3.641-0-0-0-0-0-0zM27.062 26.273c-0 0-0 0-0 0s0-0 0-0 0 0 0 0-0 0-0.001 0zM27.063 26.273c0-0 0-0 0.001-0.001s0 0 0 0-0 0-0.001 0-0-0-0-0zM27.064 26.273c-0 0-0-0-0-0s0-0 0-0 0 0 0 0-0 0-0.001 0zM27.064 26.273c2.073-0.687 4.056-1.727 5.83-3.044 1.679-0.562 3.425-0.903 5.152-0.96-3.118 2.37-7.078 3.779-10.982 4.005-0-0-0-0-0-0zM27.065 26.273c-0-0-0-0-0-0 4.447 0.13 9.049-1.243 12.627-3.877 0.036-0.028 0.071-0.057 0.107-0.085 1.441 0.12 2.889 0.448 4.289 0.945-1.453 1.189-3.072 2.162-4.791 2.833-3.873 1.339-8.305 1.362-12.232 0.184zM38.624 30.285c-4.097-0.066-8.27-1.561-11.558-4.011 4.134 1.643 8.928 1.927 13.192 0.675 1.979-0.628 3.881-1.663 5.596-2.966 1.338 0.628 2.606 1.404 3.749 2.288-3.117 2.41-7.070 3.922-10.979 4.013z"></path>
</symbol>
<symbol id="icon-arrow-right2" viewBox="0 0 32 32">
<path d="M19.414 27.414l10-10c0.781-0.781 0.781-2.047 0-2.828l-10-10c-0.781-0.781-2.047-0.781-2.828 0s-0.781 2.047 0 2.828l6.586 6.586h-19.172c-1.105 0-2 0.895-2 2s0.895 2 2 2h19.172l-6.586 6.586c-0.39 0.39-0.586 0.902-0.586 1.414s0.195 1.024 0.586 1.414c0.781 0.781 2.047 0.781 2.828 0z"></path>
</symbol>
<symbol id="icon-arrow-left2" viewBox="0 0 32 32">
<path d="M12.586 27.414l-10-10c-0.781-0.781-0.781-2.047 0-2.828l10-10c0.781-0.781 2.047-0.781 2.828 0s0.781 2.047 0 2.828l-6.586 6.586h19.172c1.105 0 2 0.895 2 2s-0.895 2-2 2h-19.172l6.586 6.586c0.39 0.39 0.586 0.902 0.586 1.414s-0.195 1.024-0.586 1.414c-0.781 0.781-2.047 0.781-2.828 0z"></path>
</symbol>
</defs>
</svg>
